<mxfile host="app.diagrams.net" modified="2023-07-08T03:18:30.646Z" agent="Mozilla/5.0 (Macintosh; Intel Mac OS X 10.15; rv:109.0) Gecko/20100101 Firefox/115.0" etag="avChmjQa8hx6e70SEQtM" version="21.6.1" type="github">
  <diagram name="Page-1" id="VhwQI55e-35OCuxMVlLL">
    <mxGraphModel dx="1193" dy="830" grid="1" gridSize="10" guides="1" tooltips="1" connect="1" arrows="1" fold="1" page="1" pageScale="1" pageWidth="850" pageHeight="1100" math="0" shadow="0">
      <root>
        <mxCell id="0" />
        <mxCell id="1" parent="0" />
        <mxCell id="I5ME2hWSj5yUnG4-PrFD-9" style="edgeStyle=orthogonalEdgeStyle;rounded=0;orthogonalLoop=1;jettySize=auto;html=1;exitX=0.5;exitY=1;exitDx=0;exitDy=0;entryX=0.5;entryY=0;entryDx=0;entryDy=0;" edge="1" parent="1" source="I5ME2hWSj5yUnG4-PrFD-1" target="I5ME2hWSj5yUnG4-PrFD-8">
          <mxGeometry relative="1" as="geometry" />
        </mxCell>
        <mxCell id="I5ME2hWSj5yUnG4-PrFD-12" style="edgeStyle=orthogonalEdgeStyle;rounded=0;orthogonalLoop=1;jettySize=auto;html=1;exitX=0.5;exitY=1;exitDx=0;exitDy=0;entryX=0.5;entryY=0;entryDx=0;entryDy=0;" edge="1" parent="1" source="I5ME2hWSj5yUnG4-PrFD-1" target="I5ME2hWSj5yUnG4-PrFD-4">
          <mxGeometry relative="1" as="geometry" />
        </mxCell>
        <mxCell id="I5ME2hWSj5yUnG4-PrFD-13" style="edgeStyle=orthogonalEdgeStyle;rounded=0;orthogonalLoop=1;jettySize=auto;html=1;exitX=0.5;exitY=1;exitDx=0;exitDy=0;entryX=0.5;entryY=0;entryDx=0;entryDy=0;" edge="1" parent="1" source="I5ME2hWSj5yUnG4-PrFD-1" target="I5ME2hWSj5yUnG4-PrFD-3">
          <mxGeometry relative="1" as="geometry" />
        </mxCell>
        <mxCell id="I5ME2hWSj5yUnG4-PrFD-14" style="edgeStyle=orthogonalEdgeStyle;rounded=0;orthogonalLoop=1;jettySize=auto;html=1;exitX=0.5;exitY=1;exitDx=0;exitDy=0;entryX=0.5;entryY=0;entryDx=0;entryDy=0;strokeWidth=3;" edge="1" parent="1" source="I5ME2hWSj5yUnG4-PrFD-1" target="I5ME2hWSj5yUnG4-PrFD-2">
          <mxGeometry relative="1" as="geometry" />
        </mxCell>
        <mxCell id="I5ME2hWSj5yUnG4-PrFD-1" value="&lt;div&gt;events&lt;/div&gt;" style="rounded=0;whiteSpace=wrap;html=1;" vertex="1" parent="1">
          <mxGeometry x="116" y="70" width="120" height="60" as="geometry" />
        </mxCell>
        <mxCell id="I5ME2hWSj5yUnG4-PrFD-2" value="&lt;div&gt;id&lt;/div&gt;" style="ellipse;whiteSpace=wrap;html=1;aspect=fixed;rounded=0;" vertex="1" parent="1">
          <mxGeometry x="81" y="200" width="40" height="40" as="geometry" />
        </mxCell>
        <mxCell id="I5ME2hWSj5yUnG4-PrFD-3" value="name" style="ellipse;whiteSpace=wrap;html=1;aspect=fixed;rounded=0;" vertex="1" parent="1">
          <mxGeometry x="131" y="200" width="40" height="40" as="geometry" />
        </mxCell>
        <mxCell id="I5ME2hWSj5yUnG4-PrFD-4" value="&lt;div&gt;sport&lt;/div&gt;" style="ellipse;whiteSpace=wrap;html=1;aspect=fixed;rounded=0;" vertex="1" parent="1">
          <mxGeometry x="181" y="200" width="40" height="40" as="geometry" />
        </mxCell>
        <mxCell id="I5ME2hWSj5yUnG4-PrFD-8" value="&lt;div&gt;date&lt;/div&gt;" style="ellipse;whiteSpace=wrap;html=1;aspect=fixed;rounded=0;" vertex="1" parent="1">
          <mxGeometry x="231" y="200" width="40" height="40" as="geometry" />
        </mxCell>
        <mxCell id="I5ME2hWSj5yUnG4-PrFD-18" style="edgeStyle=orthogonalEdgeStyle;rounded=0;orthogonalLoop=1;jettySize=auto;html=1;exitX=0.5;exitY=1;exitDx=0;exitDy=0;entryX=0.5;entryY=0;entryDx=0;entryDy=0;strokeWidth=3;" edge="1" parent="1" source="I5ME2hWSj5yUnG4-PrFD-15" target="I5ME2hWSj5yUnG4-PrFD-16">
          <mxGeometry relative="1" as="geometry" />
        </mxCell>
        <mxCell id="I5ME2hWSj5yUnG4-PrFD-19" style="edgeStyle=orthogonalEdgeStyle;rounded=0;orthogonalLoop=1;jettySize=auto;html=1;exitX=0.5;exitY=1;exitDx=0;exitDy=0;entryX=0.5;entryY=0;entryDx=0;entryDy=0;" edge="1" parent="1" source="I5ME2hWSj5yUnG4-PrFD-15" target="I5ME2hWSj5yUnG4-PrFD-17">
          <mxGeometry relative="1" as="geometry" />
        </mxCell>
        <mxCell id="I5ME2hWSj5yUnG4-PrFD-15" value="&lt;div&gt;markets&lt;/div&gt;" style="rounded=0;whiteSpace=wrap;html=1;" vertex="1" parent="1">
          <mxGeometry x="296" y="70" width="120" height="60" as="geometry" />
        </mxCell>
        <mxCell id="I5ME2hWSj5yUnG4-PrFD-16" value="id" style="ellipse;whiteSpace=wrap;html=1;aspect=fixed;rounded=0;" vertex="1" parent="1">
          <mxGeometry x="311" y="200" width="40" height="40" as="geometry" />
        </mxCell>
        <mxCell id="I5ME2hWSj5yUnG4-PrFD-17" value="kind" style="ellipse;whiteSpace=wrap;html=1;aspect=fixed;rounded=0;" vertex="1" parent="1">
          <mxGeometry x="361" y="200" width="40" height="40" as="geometry" />
        </mxCell>
        <mxCell id="I5ME2hWSj5yUnG4-PrFD-23" style="edgeStyle=orthogonalEdgeStyle;rounded=0;orthogonalLoop=1;jettySize=auto;html=1;exitX=0.5;exitY=1;exitDx=0;exitDy=0;strokeWidth=3;" edge="1" parent="1" source="I5ME2hWSj5yUnG4-PrFD-20" target="I5ME2hWSj5yUnG4-PrFD-21">
          <mxGeometry relative="1" as="geometry" />
        </mxCell>
        <mxCell id="I5ME2hWSj5yUnG4-PrFD-24" style="edgeStyle=orthogonalEdgeStyle;rounded=0;orthogonalLoop=1;jettySize=auto;html=1;exitX=0.5;exitY=1;exitDx=0;exitDy=0;" edge="1" parent="1" source="I5ME2hWSj5yUnG4-PrFD-20" target="I5ME2hWSj5yUnG4-PrFD-22">
          <mxGeometry relative="1" as="geometry" />
        </mxCell>
        <mxCell id="I5ME2hWSj5yUnG4-PrFD-56" style="edgeStyle=orthogonalEdgeStyle;rounded=0;orthogonalLoop=1;jettySize=auto;html=1;exitX=0.5;exitY=1;exitDx=0;exitDy=0;entryX=0.5;entryY=0;entryDx=0;entryDy=0;fontSize=12;startSize=8;endSize=8;" edge="1" parent="1" source="I5ME2hWSj5yUnG4-PrFD-20" target="I5ME2hWSj5yUnG4-PrFD-55">
          <mxGeometry relative="1" as="geometry" />
        </mxCell>
        <mxCell id="I5ME2hWSj5yUnG4-PrFD-62" style="edgeStyle=orthogonalEdgeStyle;rounded=0;orthogonalLoop=1;jettySize=auto;html=1;exitX=0;exitY=0.5;exitDx=0;exitDy=0;entryX=0.761;entryY=0.957;entryDx=0;entryDy=0;fontSize=12;startSize=8;endSize=8;dashed=1;strokeColor=default;entryPerimeter=0;" edge="1" parent="1" source="I5ME2hWSj5yUnG4-PrFD-20" target="I5ME2hWSj5yUnG4-PrFD-16">
          <mxGeometry relative="1" as="geometry">
            <Array as="points">
              <mxPoint x="450" y="100" />
              <mxPoint x="450" y="270" />
              <mxPoint x="341" y="270" />
              <mxPoint x="341" y="238" />
            </Array>
          </mxGeometry>
        </mxCell>
        <mxCell id="I5ME2hWSj5yUnG4-PrFD-64" style="edgeStyle=orthogonalEdgeStyle;rounded=0;orthogonalLoop=1;jettySize=auto;html=1;exitX=0;exitY=0.5;exitDx=0;exitDy=0;entryX=0;entryY=0.5;entryDx=0;entryDy=0;fontSize=12;startSize=8;endSize=8;dashed=1;" edge="1" parent="1" source="I5ME2hWSj5yUnG4-PrFD-20" target="I5ME2hWSj5yUnG4-PrFD-2">
          <mxGeometry relative="1" as="geometry">
            <Array as="points">
              <mxPoint x="450" y="100" />
              <mxPoint x="450" y="40" />
              <mxPoint x="61" y="40" />
              <mxPoint x="61" y="220" />
            </Array>
          </mxGeometry>
        </mxCell>
        <mxCell id="I5ME2hWSj5yUnG4-PrFD-20" value="&lt;div&gt;selections&lt;/div&gt;" style="rounded=0;whiteSpace=wrap;html=1;" vertex="1" parent="1">
          <mxGeometry x="476" y="70" width="120" height="60" as="geometry" />
        </mxCell>
        <mxCell id="I5ME2hWSj5yUnG4-PrFD-21" value="id" style="ellipse;whiteSpace=wrap;html=1;aspect=fixed;rounded=0;" vertex="1" parent="1">
          <mxGeometry x="466" y="200" width="40" height="40" as="geometry" />
        </mxCell>
        <mxCell id="I5ME2hWSj5yUnG4-PrFD-22" value="name" style="ellipse;whiteSpace=wrap;html=1;aspect=fixed;rounded=0;" vertex="1" parent="1">
          <mxGeometry x="516" y="200" width="40" height="40" as="geometry" />
        </mxCell>
        <mxCell id="I5ME2hWSj5yUnG4-PrFD-53" style="edgeStyle=orthogonalEdgeStyle;rounded=0;orthogonalLoop=1;jettySize=auto;html=1;exitX=0.5;exitY=1;exitDx=0;exitDy=0;entryX=1;entryY=0;entryDx=0;entryDy=0;fontSize=12;startSize=8;endSize=8;dashed=1;" edge="1" parent="1" source="I5ME2hWSj5yUnG4-PrFD-25" target="I5ME2hWSj5yUnG4-PrFD-73">
          <mxGeometry relative="1" as="geometry">
            <mxPoint x="716" y="200" as="targetPoint" />
            <Array as="points">
              <mxPoint x="702" y="510" />
              <mxPoint x="379" y="510" />
            </Array>
          </mxGeometry>
        </mxCell>
        <mxCell id="I5ME2hWSj5yUnG4-PrFD-63" style="edgeStyle=orthogonalEdgeStyle;rounded=0;orthogonalLoop=1;jettySize=auto;html=1;exitX=0;exitY=0.5;exitDx=0;exitDy=0;entryX=1;entryY=1;entryDx=0;entryDy=0;fontSize=12;startSize=8;endSize=8;dashed=1;" edge="1" parent="1" source="I5ME2hWSj5yUnG4-PrFD-25" target="I5ME2hWSj5yUnG4-PrFD-21">
          <mxGeometry relative="1" as="geometry">
            <Array as="points">
              <mxPoint x="620" y="430" />
              <mxPoint x="620" y="270" />
              <mxPoint x="500" y="270" />
            </Array>
          </mxGeometry>
        </mxCell>
        <mxCell id="I5ME2hWSj5yUnG4-PrFD-96" style="edgeStyle=orthogonalEdgeStyle;rounded=0;orthogonalLoop=1;jettySize=auto;html=1;entryX=0.5;entryY=1;entryDx=0;entryDy=0;fontSize=12;startSize=8;endSize=8;" edge="1" parent="1" source="I5ME2hWSj5yUnG4-PrFD-25" target="I5ME2hWSj5yUnG4-PrFD-94">
          <mxGeometry relative="1" as="geometry" />
        </mxCell>
        <mxCell id="I5ME2hWSj5yUnG4-PrFD-25" value="sb_odds" style="rounded=0;whiteSpace=wrap;html=1;" vertex="1" parent="1">
          <mxGeometry x="642.5" y="400" width="120" height="60" as="geometry" />
        </mxCell>
        <mxCell id="I5ME2hWSj5yUnG4-PrFD-55" value="link" style="ellipse;whiteSpace=wrap;html=1;aspect=fixed;rounded=0;" vertex="1" parent="1">
          <mxGeometry x="566" y="200" width="40" height="40" as="geometry" />
        </mxCell>
        <mxCell id="I5ME2hWSj5yUnG4-PrFD-66" style="edgeStyle=orthogonalEdgeStyle;rounded=0;orthogonalLoop=1;jettySize=auto;html=1;exitX=0;exitY=0.5;exitDx=0;exitDy=0;entryX=0.5;entryY=1;entryDx=0;entryDy=0;fontSize=12;startSize=8;endSize=8;dashed=1;" edge="1" parent="1" source="I5ME2hWSj5yUnG4-PrFD-65" target="I5ME2hWSj5yUnG4-PrFD-2">
          <mxGeometry relative="1" as="geometry">
            <Array as="points">
              <mxPoint x="101" y="430" />
            </Array>
          </mxGeometry>
        </mxCell>
        <mxCell id="I5ME2hWSj5yUnG4-PrFD-69" style="edgeStyle=orthogonalEdgeStyle;rounded=0;orthogonalLoop=1;jettySize=auto;html=1;entryX=0.5;entryY=1;entryDx=0;entryDy=0;fontSize=12;startSize=8;endSize=8;exitX=0.5;exitY=0;exitDx=0;exitDy=0;strokeWidth=3;" edge="1" parent="1" source="I5ME2hWSj5yUnG4-PrFD-65" target="I5ME2hWSj5yUnG4-PrFD-67">
          <mxGeometry relative="1" as="geometry">
            <mxPoint x="200" y="370" as="sourcePoint" />
          </mxGeometry>
        </mxCell>
        <mxCell id="I5ME2hWSj5yUnG4-PrFD-71" style="edgeStyle=orthogonalEdgeStyle;rounded=0;orthogonalLoop=1;jettySize=auto;html=1;exitX=0.5;exitY=0;exitDx=0;exitDy=0;entryX=0.5;entryY=1;entryDx=0;entryDy=0;fontSize=12;startSize=8;endSize=8;" edge="1" parent="1" source="I5ME2hWSj5yUnG4-PrFD-65" target="I5ME2hWSj5yUnG4-PrFD-68">
          <mxGeometry relative="1" as="geometry" />
        </mxCell>
        <mxCell id="I5ME2hWSj5yUnG4-PrFD-77" style="edgeStyle=orthogonalEdgeStyle;rounded=0;orthogonalLoop=1;jettySize=auto;html=1;entryX=0;entryY=0.5;entryDx=0;entryDy=0;fontSize=12;startSize=8;endSize=8;dashed=1;exitX=0.5;exitY=1;exitDx=0;exitDy=0;" edge="1" parent="1" source="I5ME2hWSj5yUnG4-PrFD-65" target="I5ME2hWSj5yUnG4-PrFD-73">
          <mxGeometry relative="1" as="geometry" />
        </mxCell>
        <mxCell id="I5ME2hWSj5yUnG4-PrFD-65" value="&lt;div&gt;&lt;font style=&quot;font-size: 12px;&quot;&gt;sb_events&lt;/font&gt;&lt;/div&gt;" style="rounded=0;whiteSpace=wrap;html=1;fontSize=16;" vertex="1" parent="1">
          <mxGeometry x="116" y="400" width="120" height="60" as="geometry" />
        </mxCell>
        <mxCell id="I5ME2hWSj5yUnG4-PrFD-67" value="id" style="ellipse;whiteSpace=wrap;html=1;aspect=fixed;rounded=0;" vertex="1" parent="1">
          <mxGeometry x="131" y="300" width="40" height="40" as="geometry" />
        </mxCell>
        <mxCell id="I5ME2hWSj5yUnG4-PrFD-68" value="&lt;div&gt;url&lt;/div&gt;" style="ellipse;whiteSpace=wrap;html=1;aspect=fixed;rounded=0;" vertex="1" parent="1">
          <mxGeometry x="181" y="300" width="40" height="40" as="geometry" />
        </mxCell>
        <mxCell id="I5ME2hWSj5yUnG4-PrFD-75" style="edgeStyle=orthogonalEdgeStyle;rounded=0;orthogonalLoop=1;jettySize=auto;html=1;exitX=0.5;exitY=0;exitDx=0;exitDy=0;entryX=0.5;entryY=1;entryDx=0;entryDy=0;fontSize=12;startSize=8;endSize=8;strokeWidth=3;" edge="1" parent="1" source="I5ME2hWSj5yUnG4-PrFD-72" target="I5ME2hWSj5yUnG4-PrFD-73">
          <mxGeometry relative="1" as="geometry" />
        </mxCell>
        <mxCell id="I5ME2hWSj5yUnG4-PrFD-76" style="edgeStyle=orthogonalEdgeStyle;rounded=0;orthogonalLoop=1;jettySize=auto;html=1;exitX=0.5;exitY=0;exitDx=0;exitDy=0;entryX=0.5;entryY=1;entryDx=0;entryDy=0;fontSize=12;startSize=8;endSize=8;" edge="1" parent="1" source="I5ME2hWSj5yUnG4-PrFD-72" target="I5ME2hWSj5yUnG4-PrFD-74">
          <mxGeometry relative="1" as="geometry" />
        </mxCell>
        <mxCell id="I5ME2hWSj5yUnG4-PrFD-72" value="&lt;font style=&quot;font-size: 12px;&quot;&gt;sb&lt;/font&gt;" style="rounded=0;whiteSpace=wrap;html=1;fontSize=16;" vertex="1" parent="1">
          <mxGeometry x="330" y="630" width="120" height="60" as="geometry" />
        </mxCell>
        <mxCell id="I5ME2hWSj5yUnG4-PrFD-73" value="id" style="ellipse;whiteSpace=wrap;html=1;aspect=fixed;rounded=0;" vertex="1" parent="1">
          <mxGeometry x="345" y="540" width="40" height="40" as="geometry" />
        </mxCell>
        <mxCell id="I5ME2hWSj5yUnG4-PrFD-74" value="name" style="ellipse;whiteSpace=wrap;html=1;aspect=fixed;rounded=0;" vertex="1" parent="1">
          <mxGeometry x="395" y="540" width="40" height="40" as="geometry" />
        </mxCell>
        <mxCell id="I5ME2hWSj5yUnG4-PrFD-81" style="edgeStyle=orthogonalEdgeStyle;rounded=0;orthogonalLoop=1;jettySize=auto;html=1;entryX=0.5;entryY=1;entryDx=0;entryDy=0;fontSize=12;startSize=8;endSize=8;strokeWidth=3;" edge="1" parent="1" source="I5ME2hWSj5yUnG4-PrFD-78" target="I5ME2hWSj5yUnG4-PrFD-79">
          <mxGeometry relative="1" as="geometry" />
        </mxCell>
        <mxCell id="I5ME2hWSj5yUnG4-PrFD-83" style="edgeStyle=orthogonalEdgeStyle;rounded=0;orthogonalLoop=1;jettySize=auto;html=1;exitX=0.233;exitY=0.001;exitDx=0;exitDy=0;entryX=0.173;entryY=0.865;entryDx=0;entryDy=0;fontSize=12;startSize=8;endSize=8;dashed=1;entryPerimeter=0;exitPerimeter=0;" edge="1" parent="1" source="I5ME2hWSj5yUnG4-PrFD-78" target="I5ME2hWSj5yUnG4-PrFD-16">
          <mxGeometry relative="1" as="geometry">
            <Array as="points" />
          </mxGeometry>
        </mxCell>
        <mxCell id="I5ME2hWSj5yUnG4-PrFD-84" style="edgeStyle=orthogonalEdgeStyle;rounded=0;orthogonalLoop=1;jettySize=auto;html=1;exitX=0.5;exitY=1;exitDx=0;exitDy=0;entryX=0;entryY=0;entryDx=0;entryDy=0;fontSize=12;startSize=8;endSize=8;dashed=1;" edge="1" parent="1" source="I5ME2hWSj5yUnG4-PrFD-78" target="I5ME2hWSj5yUnG4-PrFD-73">
          <mxGeometry relative="1" as="geometry" />
        </mxCell>
        <mxCell id="I5ME2hWSj5yUnG4-PrFD-78" value="&lt;font style=&quot;font-size: 12px;&quot;&gt;sb_markets&lt;/font&gt;" style="rounded=0;whiteSpace=wrap;html=1;fontSize=16;" vertex="1" parent="1">
          <mxGeometry x="290" y="400" width="120" height="60" as="geometry" />
        </mxCell>
        <mxCell id="I5ME2hWSj5yUnG4-PrFD-79" value="id" style="ellipse;whiteSpace=wrap;html=1;aspect=fixed;rounded=0;" vertex="1" parent="1">
          <mxGeometry x="330" y="300" width="40" height="40" as="geometry" />
        </mxCell>
        <mxCell id="I5ME2hWSj5yUnG4-PrFD-85" style="edgeStyle=orthogonalEdgeStyle;rounded=0;orthogonalLoop=1;jettySize=auto;html=1;entryX=0.5;entryY=1;entryDx=0;entryDy=0;fontSize=12;startSize=8;endSize=8;strokeWidth=3;" edge="1" parent="1" source="I5ME2hWSj5yUnG4-PrFD-87" target="I5ME2hWSj5yUnG4-PrFD-88">
          <mxGeometry relative="1" as="geometry" />
        </mxCell>
        <mxCell id="I5ME2hWSj5yUnG4-PrFD-92" style="edgeStyle=orthogonalEdgeStyle;rounded=0;orthogonalLoop=1;jettySize=auto;html=1;exitX=0.25;exitY=1;exitDx=0;exitDy=0;entryX=0.5;entryY=0;entryDx=0;entryDy=0;fontSize=12;startSize=8;endSize=8;dashed=1;" edge="1" parent="1" source="I5ME2hWSj5yUnG4-PrFD-87" target="I5ME2hWSj5yUnG4-PrFD-73">
          <mxGeometry relative="1" as="geometry" />
        </mxCell>
        <mxCell id="I5ME2hWSj5yUnG4-PrFD-87" value="&lt;font style=&quot;font-size: 12px;&quot;&gt;sb_selections&lt;/font&gt;" style="rounded=0;whiteSpace=wrap;html=1;fontSize=16;" vertex="1" parent="1">
          <mxGeometry x="466" y="400" width="120" height="60" as="geometry" />
        </mxCell>
        <mxCell id="I5ME2hWSj5yUnG4-PrFD-88" value="id" style="ellipse;whiteSpace=wrap;html=1;aspect=fixed;rounded=0;" vertex="1" parent="1">
          <mxGeometry x="506" y="300" width="40" height="40" as="geometry" />
        </mxCell>
        <mxCell id="I5ME2hWSj5yUnG4-PrFD-91" style="edgeStyle=none;curved=1;rounded=0;orthogonalLoop=1;jettySize=auto;html=1;exitX=0.175;exitY=0;exitDx=0;exitDy=0;entryX=0.5;entryY=1;entryDx=0;entryDy=0;fontSize=12;startSize=8;endSize=8;exitPerimeter=0;strokeColor=default;dashed=1;" edge="1" parent="1" source="I5ME2hWSj5yUnG4-PrFD-87" target="I5ME2hWSj5yUnG4-PrFD-21">
          <mxGeometry relative="1" as="geometry" />
        </mxCell>
        <mxCell id="I5ME2hWSj5yUnG4-PrFD-94" value="odds" style="ellipse;whiteSpace=wrap;html=1;aspect=fixed;rounded=0;" vertex="1" parent="1">
          <mxGeometry x="682.5" y="300" width="40" height="40" as="geometry" />
        </mxCell>
      </root>
    </mxGraphModel>
  </diagram>
</mxfile>
